<svg xmlns="http://www.w3.org/2000/svg" xmlns:xlink="http://www.w3.org/1999/xlink" viewBox="0 0 295.28 295.28"><defs><style>.cls-1{fill:url(#linear-gradient);}.cls-2{stroke:#fff;stroke-miterlimit:10;stroke-width:9px;fill:url(#linear-gradient-2);}.cls-3{fill:#fff;}</style><linearGradient id="linear-gradient" x1="147.64" x2="147.64" y2="295.28" gradientTransform="translate(-61.15 147.64) rotate(-45)" gradientUnits="userSpaceOnUse"><stop offset="0" stop-color="#7fc0d5"/><stop offset="1" stop-color="#1a8eb4"/></linearGradient><linearGradient id="linear-gradient-2" x1="147.64" y1="232.42" x2="147.64" y2="62.86" gradientTransform="matrix(1, 0, 0, 1, 0, 0)" xlink:href="#linear-gradient"/></defs><title>acmLogo</title><g id="Layer_2" data-name="Layer 2"><g id="Layer_1-2" data-name="Layer 1"><rect class="cls-1" x="43.24" y="43.24" width="208.79" height="208.79" transform="translate(147.64 -61.15) rotate(45)"/><circle class="cls-2" cx="147.64" cy="147.64" r="84.78"/><path class="cls-3" d="M157.69,135.94c.19-5.64.19-5.64,5.78-5.64a14.28,14.28,0,0,0,2.17,0c2.32-.36,3.81.2,3.2,3.33,3.12-1.79,5.53-4,8.93-4.14,3.73-.16,7.06.63,9.24,3.87,1.08,1.61,1.78,1.4,3,.27a15.3,15.3,0,0,1,5.78-3.52c4.38-1.35,8.35-.79,11.63,2.69a18.48,18.48,0,0,1,2.42,10.09q-.12,9.78,0,19.56c0,2-.53,2.66-2.6,2.68-8.15.1-8.13.17-8.14-8,0-4.55.12-9.11-.17-13.65s-3.36-6.18-7.56-4.28a3.37,3.37,0,0,0-2.22,3.59c.12,6.52,0,13,.12,19.56.06,2.23-.69,2.75-2.82,2.75-8,0-7.89.07-8-7.88-.05-4.95.48-9.93-.34-14.87-.5-3-2.09-4.16-4.91-3.89-3.05.3-4.53,1.78-4.53,4.61,0,6.52,0,13,.07,19.56,0,1.91-.58,2.43-2.47,2.47-8.31.15-8.31.21-8.29-8.16,0-6,0-12,0-18C158.08,137.94,158.4,136.87,157.69,135.94Z"/><path class="cls-3" d="M88,133.44c.06-1.23-.07-2.38,1.69-2.77,6.31-1.39,12.62-2,19-.52a13.19,13.19,0,0,1,7.13,4.07,20.21,20.21,0,0,1,2,9.58c-.11,5.88-.2,11.78.07,17.65.15,3.13-.92,4-3.82,3.65a17,17,0,0,0-4.33,0c-2.17.26-3.37-.4-3-3.11-3.19,2-6,3.82-9.6,3.82-6.59,0-10.46-2.7-11.47-8.33-1.16-6.55,1.52-11.15,7.75-13.3,3.75-1.29,7.69-1.44,11.58-1.85,2.51-.27,2.08-1.53,1.18-2.89-1.2-1.83-3.27-2-5.21-2.24a19.06,19.06,0,0,0-8.8,1.26c-3.89,1.44-3.89,1.42-3.95-2.86C88.17,134.87,88.07,134.15,88,133.44Zm18.69,19c-1-.63,1.66-3.25-1.41-3.39a12.58,12.58,0,0,0-6.84,1.53c-2.65,1.51-2.87,5.47-.36,6.93,2.24,1.3,4.52.86,6.79-.2C106.9,156.34,106.94,154.68,106.7,152.41Z"/><path class="cls-3" d="M126.64,134.14c6.55-5.12,13.88-5.68,21.64-3.69,2.83.72,4.95,2,4.3,5.49a5,5,0,0,0-.39,1.14c-.32,4.76-.29,4.72-4.6,2.18-3.89-2.28-10.38-2.35-12.7,1-2.85,4.09-2.72,12.13.54,15.38,3,3,9.48,3,13.49,0,.84-.64,1.5-2.19,2.77-1.42,1.06.65.48,2.1.49,3.18.06,6.74.06,6.86-6.69,8.1-5.85,1.08-11.82.48-16.78-2.61-4.74-3-6.72-8.15-7-13.84A21,21,0,0,1,126.64,134.14Z"/></g></g></svg>